# xmcd CD database file
#
# Track frame offsets:
#	150
#	26923
#	50236
#	76391
#	94520
#	116547
#	133942
#	151652
#	225906
#	237655
#	250554
#	265361
#	279475
#
# Disc length: 3987 seconds
#
# Revision: 0
# Processed by: cddbd v1.5.2PL0 Copyright (c) Steve Scherf et al.
# Submitted via: CDex 1.70beta2
#
DISCID=aa0f910d
DTITLE=Art Farmer - Brass Shout - The Atzec Suite 
DYEAR=1959
DGENRE=Jazz
TTITLE0=Nica's Dream
TTITLE1=Autumn Leaves
TTITLE2=Moanin
TTITLE3=April in Paris
TTITLE4=Five Spot after Dark
TTITLE5=Stella By Starlight
TTITLE6=Minor Vamp
TTITLE7=The Atzec Suite
TTITLE8=Heat Wave
TTITLE9=DeliRio
TTITLE10=Woody N You
TTITLE11=Drume Negrita
TTITLE12=Alone Together
EXTD=YEAR: 1959
EXTT0=
EXTT1=
EXTT2=
EXTT3=
EXTT4=
EXTT5=
EXTT6=
EXTT7=
EXTT8=
EXTT9=
EXTT10=
EXTT11=
EXTT12=
PLAYORDER=
